<svg xmlns="http://www.w3.org/2000/svg" xmlns:xlink="http://www.w3.org/1999/xlink" viewBox="0 0 195.86 254.66"><defs><style>.cls-1{fill:none;}.cls-2{fill:#a0a0a0;stroke:#161616;stroke-miterlimit:10;stroke-width:2px;}.cls-3{fill:#fff;}.cls-4{clip-path:url(#clip-path);}.cls-5{fill:#200096;}.cls-12,.cls-16,.cls-6{fill:#111;}.cls-7{fill:#191919;}.cls-8{fill:#ffe406;}.cls-9{fill:#ffb90b;}.cls-10{fill:#f46300;}.cls-11{fill:#f27900;}.cls-12,.cls-16{font-size:15px;font-family:NasalizationRg-Regular, Nasalization;}.cls-12{letter-spacing:-0.07em;}.cls-13{letter-spacing:-0.07em;}.cls-14{letter-spacing:-0.02em;}.cls-15{letter-spacing:0em;}</style><clipPath id="clip-path"><path class="cls-1" d="M104.74,212.05c-.13-.26,1.35-.4,1.62-.4S105.58,213.43,104.74,212.05Zm-8.48-12.11.43-.12c.25.22-.29.38-.2.54a1.57,1.57,0,0,1,0,1.31c-.06.33-.41.18-.59.36s1,.3,1,.34-1.48.35-1.2.67c.38.54,3.25-.77,2.79-.69.89-.45.12-.5-.38-.75-.17-.85-.31-2.16-.84-2.68l.35-.4C96.87,197.34,96.26,199.94,96.26,199.94Zm49.4,27.64c0,24.56-20.31,44.48-45.37,44.48s-45.36-19.92-45.36-44.48,20.31-44.49,45.36-44.49S145.66,203,145.66,227.58ZM114.78,206c0-.57-.75-1.12-1.51-.12-.53.69-.43,1.73-.72,2.2-.41.69,2.23,1.33,2.23.68.1-1.09,2.89-.25,3.43-.1,1,.28,2.54-.89.83-1.5-1.4-.51-2.13-1.06-2.26-2.06,0,0,.74-.69.42-.65C116.34,204.52,114.78,207.51,114.78,206Zm24.82,21.17a37.61,37.61,0,0,0-1.41-10.37,2.41,2.41,0,0,0-1.42-1.49c-1-.39-5.27,2.35-5.91,1-.42-.9-1.28.58-2.25,0-.48-.26-1.79-2-2.39-1.81-1.22.44,1.87,3.8,2.71,4.24.8-.6,3.36-1.83,3.91-.15,1.06,3.17-2.9,6.64-4.93,8.47-3,2.74-2.46-1.77-4.52-3.36-1.08-.83-1.07-2.6-2.17-3.21a13.54,13.54,0,0,1-2.71-3.2l-.07.65c-.37.28-1.15-1.06-1.24-1.26,0,1.16,1.9,3,2.52,3.94,1.07,1.6,1.64,3.92,3,5.23.7.7,3.38,3.6,4.08,3.54s3.17-1.81,3.59-1.71c2.54.6-6,12.63-6.78,14.12-.67,1.25.54,4.34.44,5.82-.11,1.71-1.46,2.26-2.73,3.19s-1,2.94-2.19,3.65c-2,1.25-3.5,5.33-6.4,5.31-.85,0-4.49,1.42-5,0a22.41,22.41,0,0,0-1.39-2.77c-.51-1-.06-2-.68-2.86-.43-.6-1.87-2-2-2.67s.46-2.46,1.1-2.79c.9-.46.17-1.8.06-2.58a5.24,5.24,0,0,0-2.09-3.36c-1.53-1.17-.74-2.11-.38-3.8,0-.8-.49-1.86-1.57-1.54-2.22.65-1.55-1.74-3.17-1.63-1.16.08-2.12.82-3.2,1.15-1.37.41-2.76-.32-4.11-.49-5.54-.7-7.35-7-5.91-11.61.15-.75-.45-2.14-.19-2.72a14.46,14.46,0,0,1,3-4c.62-.59,1.42-.44,2.15-.9,1.13-.71,1.15-2.18,2.26-3.08,1.57-1.28,3.73-1.25,5.78-1.53,1.1-.14,5.27-1.05,5.93-.23,0,.15.75,2.38-.08,2.25,1.71.09,4.14,3,5.76,2.28.83-.34.53-2.9,2.24-1.66,1,.74,5.66,1.07,6.62.27.59-.49.92-3.67.2-4,.46.46-2.4.49-2.67.39-.47-.17-.92.45-1.68.1.46.22-2.54-1.4-.86-2.63-.7.52-1.36-.15-2.12.42-.53.43.24.71-.51,1.08-1.19.6-2.08-2.07-2.53-2.37s-4-2.78-3-1.16l3.11,3.09c-.15.1-.82-1.13-.82-.23.21-.53.08,2.28-.4,1.37-.22-.36.35-.55,0-1.06,0-.34-.9-.66-1.07-.89a10.84,10.84,0,0,0-2.51-2.28,19.46,19.46,0,0,0-3.25.43A7.15,7.15,0,0,0,99,209a7.55,7.55,0,0,0-1.65.84l-.62,1.39c-.27.24-3,1.15-3,1.18.11-.29-1.92-.67-1.79-1.26s.84-2.68.67-3.42,4.23,1.12,4.51-.93c.12-.89.19-1.92-1.23-2.07A10.49,10.49,0,0,0,99,203.3a5.06,5.06,0,0,1,2.85-1.74c1.12,0,.88-1.63,1.4-2.43.52.21-.28,1.49.34,2,0-.4,1.76.23,1.93.13.41-.21,2.7-.08,2.34-1.16s.2-.76.71-1c-.08,0,1.34-2.44,1.59-1.63-.17-.84-1.66.29-2.18.25-1.2-.1-.69-2-.24-2.62s-1-1-1-.15c0,1.3-1.23,2.48-1,4.2.42,2.6-2.9-.63-3.19-.45-1.11.67-2-.84-1.44-1.75s2-.88,2.57-1.88A8,8,0,0,1,105.3,193c2.11-1.77,2.69-.35,4.79-.16s.7.49.41,1.28,1.13,1,1.61.39a9.89,9.89,0,0,0,1.18-1.95c.35-.87,3.55-.78,1.32-2.11-1.48-.88-7.9-2.65-12.21-2.65-.93,0-1.58,1-2.29,1.62-1.4,1.17-5,3.45-7,2.76s-6.43,2.6-7.13,2.62c-.26,0,0-2.5,1.41-2.68-.6.09,4.92-2.79,4.77-3.39s-11,3.24-10.55,4c.23.37,1.18.37-.07,1.16-.71.43-1.46,3.16-2.13,3.16-2,.87-2.11-1.72-4.33,1.61l-3.52,1.42A39.21,39.21,0,0,0,61.4,220.57c-.06.31,1.31.89,1.49,1.1.44.53.44,2.81.66,3.56.54,1.88,1.89,2.93,2.92,4.64.6,1,1.61,3.61,1.29,4.68.43-.7,4.22,3.21,4.91,4,1.64,1.92,2.89,4.24.24,6.14-.85.62,1.3,4.45.19,5.39l-1.42.37c-1.4.86-.77,3,.08,3.87a39.37,39.37,0,0,0,67.84-27.21Zm-45.36-25c.49-.22,1.15-.21,1.22-.87s.18-.18.32-.39-.26-.55-.43-.58-.43.27-.59.41l-.28.08-.27.34,0,.19-.34.42C93.56,202,93.9,202.23,94.24,202.09Z"/></clipPath></defs><g id="Layer_2" data-name="Layer 2"><g id="Layer_19" data-name="Layer 19"><g id="Layer_3" data-name="Layer 3"><path class="cls-2" d="M124.11,100.83H73.2a15,15,0,0,0-10.59,4.38l-36,36a15,15,0,0,0-4.39,10.58V202.7a14.94,14.94,0,0,0,4.39,10.58l36,36a15,15,0,0,0,10.59,4.38h50.91a15,15,0,0,0,10.58-4.38l36-36a14.94,14.94,0,0,0,4.39-10.58V151.79a15,15,0,0,0-4.39-10.58l-36-36A15,15,0,0,0,124.11,100.83Z"/></g><g id="Layer_17" data-name="Layer 17"><path class="cls-3" d="M118.56,115.25H81.07a14.93,14.93,0,0,0-10.58,4.38L44,146.14a15,15,0,0,0-4.39,10.58v37.49A14.94,14.94,0,0,0,44,204.79L70.49,231.3a14.93,14.93,0,0,0,10.58,4.38h37.49a15,15,0,0,0,10.58-4.38l26.51-26.51A15,15,0,0,0,160,194.21V156.72a15,15,0,0,0-4.38-10.58l-26.51-26.51A15,15,0,0,0,118.56,115.25Z"/></g><g id="Layer_25" data-name="Layer 25"><g class="cls-4"><path class="cls-5" d="M118.56,115.25H81.07a14.93,14.93,0,0,0-10.58,4.38L44,146.14a15,15,0,0,0-4.39,10.58v37.49A14.94,14.94,0,0,0,44,204.79L70.49,231.3a14.93,14.93,0,0,0,10.58,4.38h37.49a15,15,0,0,0,10.58-4.38l26.51-26.51A15,15,0,0,0,160,194.21V156.72a15,15,0,0,0-4.38-10.58l-26.51-26.51A15,15,0,0,0,118.56,115.25Z"/></g></g><g id="Layer_16" data-name="Layer 16"><path class="cls-6" d="M118.43,114.31H82.34a17.46,17.46,0,0,0-10.87,3.26,44,44,0,0,0-4.39,4.14L51,137.79l-6.34,6.35a19.29,19.29,0,0,0-5.34,8.12,25.53,25.53,0,0,0-.66,7.44v31.87a22.55,22.55,0,0,0,1,8,20.61,20.61,0,0,0,5.24,7.4l15.27,15.28,7.22,7.22a33.84,33.84,0,0,0,4.91,4.43c5.44,3.64,12.64,2.69,18.88,2.69h23c1.75,0,3.54.08,5.3,0a17.09,17.09,0,0,0,11.06-5.31l14-14c3.91-3.91,7.87-7.79,11.74-11.74A16.74,16.74,0,0,0,161,193.69V163.43c0-2.13,0-4.25,0-6.38a16.64,16.64,0,0,0-4.84-11.75c-4.1-4.14-8.25-8.25-12.37-12.37l-13.51-13.51a16.81,16.81,0,0,0-11.82-5.11,1.25,1.25,0,0,0,0,2.5,14.71,14.71,0,0,1,10.41,4.73l5.54,5.55,16.09,16.08c1.31,1.31,2.63,2.61,3.92,3.93a14.26,14.26,0,0,1,4.08,10.29V176c0,5.94,0,11.88,0,17.81a14.18,14.18,0,0,1-4.17,10.16q-2.18,2.19-4.37,4.36l-16.15,16.16-5.17,5.17a14.4,14.4,0,0,1-10.22,4.5c-12,.12-24,0-36,0-3.8,0-7.4-.86-10.31-3.47-1.25-1.12-2.39-2.36-3.57-3.54L52.69,211.29l-6.23-6.22c-2.25-2.26-4.15-4.61-4.93-7.82a27.27,27.27,0,0,1-.37-6.45V159.43a20.24,20.24,0,0,1,1-7.61c1-2.61,2.87-4.47,4.79-6.39L62,130.33l7.07-7.07a30.19,30.19,0,0,1,4.62-4.21c2.84-1.85,5.94-2.24,9.22-2.24h35.52A1.25,1.25,0,0,0,118.43,114.31Z"/></g><g id="Layer_26" data-name="Layer 26"><g id="Layer_4" data-name="Layer 4"><path class="cls-3" d="M6.68,93C8.3,92.3,8.27,89.47,9,87.86A3.72,3.72,0,0,1,10.29,86a2.4,2.4,0,0,1,1.86,0c2.5.77,4.55,3.09,7.16,3a.83.83,0,0,0,.57-.2c.23-.26.09-.66-.06-1A70.62,70.62,0,0,0,14.75,79a15.2,15.2,0,0,0-4.64-4.83,6,6,0,0,0-6.38,0c-1.95,1.43-2.42,4.13-2.47,6.55A33.65,33.65,0,0,0,2.83,91.55l1,2.39Z"/><path class="cls-7" d="M7.31,94.11c1.87-1,2.07-3.26,2.6-5.07.2-.67.52-2,1.29-2.05,1-.11,2.4,1,3.22,1.44,1.55.92,4.32,2.57,6.09,1.31,1.09-.78.71-2,.22-3-.65-1.34-1.37-2.64-2.12-3.93a46.89,46.89,0,0,0-4.72-7,10.14,10.14,0,0,0-5.95-3.69,6.34,6.34,0,0,0-6.06,2.11A10.32,10.32,0,0,0,0,80.45a34,34,0,0,0,1,9.32,31.29,31.29,0,0,0,1.75,4.8,1.23,1.23,0,0,0,1.41.57L7,94.24c1.52-.49.87-2.91-.67-2.41l-2.82.9,1.42.58c-.35-.81-.74-1.63-1-2.44a29.51,29.51,0,0,1-1.35-7.22C2.36,80.36,2.2,74.26,7,74.53a7.61,7.61,0,0,1,5.1,3.07,42.1,42.1,0,0,1,4,5.83c.6,1,1.17,2,1.72,3.07A6.77,6.77,0,0,0,18.57,88l.17.33c.74-.55.84-.79.28-.7-.23-.08-.53-.05-.78-.12-1.88-.48-3.4-1.9-5.21-2.6a3.94,3.94,0,0,0-3.37,0,4.51,4.51,0,0,0-1.72,2.36,16.67,16.67,0,0,0-.81,2.6C7,90.57,6.78,91.57,6.05,92,4.62,92.7,5.88,94.85,7.31,94.11Z"/><path class="cls-3" d="M43.18,1.32l-7.36,9.45,16,35.55a30.75,30.75,0,0,0,4.67-1.23,39.29,39.29,0,0,0,4.82-3.69L43.18,1.32"/><path class="cls-7" d="M42.29.44,34.94,9.88a1.33,1.33,0,0,0-.19,1.52l14,31.09,2,4.46a1.27,1.27,0,0,0,1.41.57,15.91,15.91,0,0,0,5.47-1.64,34.46,34.46,0,0,0,4.57-3.6,1.25,1.25,0,0,0,.19-1.51L56.28,27.2,46.52,5.69l-2.26-5C43.59-.77,41.44.5,42.1,2l6.15,13.57L58,37l2.27,5,.19-1.52a32.25,32.25,0,0,1-4.06,3.22,14.73,14.73,0,0,1-4.88,1.38l1.42.57-14-31.09-2-4.46-.19,1.52L44.06,2.2c1-1.25-.78-3-1.77-1.76Z"/></g></g><g id="Layer_9_copy" data-name="Layer 9 copy"><polygon class="cls-8" points="70.02 144.24 44.32 186.33 85.86 162.59 87.96 202.94 106.5 165.95 150.33 194.83 127.61 146.24 161.5 129.18 132.36 125.53 158.62 87.09 114.32 107.47 117.64 88.2 102.57 103.48 84.64 64.57 83.73 106.81 67.67 95.95 72.45 113.67 37.68 110.13 67.67 132.28 47.64 142.47 70.02 144.24"/><path class="cls-9" d="M102.57,103.48l1.44,11a1.55,1.55,0,0,1-2.33,1.18L91,109.39a1.52,1.52,0,0,0-2.09,2.06l4.37,7.76a2.1,2.1,0,0,1-2.24,3.09l-21.31-2.08c-2.33-.47-2.71,1.74-.65,2.94l15.35,12.68a2.1,2.1,0,0,1-.23,3.75L78,142.26a1.52,1.52,0,0,0,.24,2.88L90.44,148a1.55,1.55,0,0,1,1.11,2l-5.69,12.55c-.18.53.1-1.76-41.54,23.74,0,0-1.41,0,0,0h0c-.6.11-.51.32,0,0,37.64-23.73-.08,1,0,0L70,144.24l-22.38-1.77,20-10.19-30-22.15c.06-.7-.62.34,0,0l34.77,3.54L67.67,96l16.06,10.86c.84-.46.59-43.15.91-42.24l17.93,38.91C102.65,103.7,101.38,103.4,102.57,103.48Z"/><path class="cls-10" d="M84.6,160.43l-14.06,8L48.23,181.22l-5.17,2.95,3.42,3.42,8.68-14.22L69,150.7l3.17-5.2A2.53,2.53,0,0,0,70,141.74l-19.55-1.55L47.64,140l1.27,4.66,17.5-8.91,2.53-1.28c1.83-.93,1.39-3.29,0-4.32L42.62,110.69,38.94,108l-1.26,4.66,30.5,3.11,4.27.43c1.66.17,2.8-1.72,2.41-3.16L70.08,95.29l-3.67,2.82L82.47,109c1.63,1.1,3.72-.38,3.76-2.16l.79-37,.12-5.25-4.66,1.26,6,13.11,9.65,21,2.24,4.86a2.52,2.52,0,0,0,3.42.89,2.55,2.55,0,0,0,.9-3.42l-6-13.11L89,68.17l-2.24-4.86c-1.09-2.37-4.6-1.05-4.65,1.26l-.8,37-.11,5.26L85,104.65l-16-10.86c-1.86-1.25-4.22.82-3.68,2.83L70,114.34l2.41-3.17L42,108.07l-4.27-.44a2.5,2.5,0,0,0-2.41,1.84,2.6,2.6,0,0,0,1.14,2.82l26.32,19.43,3.68,2.72v-4.32L48.91,139l-2.53,1.28a2.54,2.54,0,0,0-1.15,2.82A2.6,2.6,0,0,0,47.64,145l19.55,1.55,2.83.22L67.86,143,59.17,157.2,45.34,179.87l-3.18,5.2a2.52,2.52,0,0,0,3.42,3.42l14.07-8L82,167.7l5.16-2.95c2.8-1.6.28-5.92-2.52-4.32Z"/><path class="cls-11" d="M83.78,162.4l1.47,35.46.21,5.08c.09,2.32,3.48,3.6,4.66,1.26l16.22-32.37,2.32-4.62-3.42.9,14.83,10.62,23.61,16.91,5.39,3.87a2.52,2.52,0,0,0,3-.4,2.6,2.6,0,0,0,.39-3l-7.67-17.25-12.23-27.52L129.77,145l-.9,3.42,29.71-14.95,4.18-2.1a2.53,2.53,0,0,0,1.15-2.83,2.62,2.62,0,0,0-2.41-1.83l-27.1-2.89-3.8-.41,2.15,3.76L142.24,114l15-20.83,3.49-4.82a2.51,2.51,0,0,0-.39-3,2.62,2.62,0,0,0-3-.4l-15,6.91-23.8,11-5.49,2.52,3.67,2.83,3.32-19.27c.4-2.32-2.3-4.36-4.18-2.44L102.69,100l-1.92,2c-2.24,2.31,1.29,5.85,3.54,3.54l13.18-13.54,1.92-2-4.18-2.43-3.32,19.27a2.54,2.54,0,0,0,3.67,2.82l15-6.9,23.79-11,5.5-2.53-3.42-3.42L147,99l-15.05,20.83-3.48,4.83c-1.23,1.7.48,3.58,2.16,3.76l27.09,2.89,3.81.41L160.24,127l-29.72,15-4.17,2.1a2.56,2.56,0,0,0-.9,3.42l7.67,17.25,12.23,27.51,2.82,6.35,3.42-3.42-14.82-10.62-23.62-16.92-5.39-3.86a2.51,2.51,0,0,0-3.42.9L88.11,197.06l-2.31,4.62,4.66,1.26L89,167.47l-.21-5.07c-.13-3.21-5.13-3.23-5,0Z"/></g><g id="Layer_11" data-name="Layer 11"><path class="cls-3" d="M190.87,80.16q-13.71,17.11-28.71,33.12c-.63.69-1.37,1.42-2.46,1.11a2.11,2.11,0,0,1-1.47-2c-.12-2,1.37-3.36,2.39-4.91,1.35-2.07-.16-4.71,1.38-7.11,6.89-8.28,14.56-16.62,22.25-24.17A5.1,5.1,0,0,1,186,75c2.09-.81,1.23,3.32,6.55-.14C197.57,73.79,192.11,78.63,190.87,80.16Z"/><path class="cls-7" d="M190,79.28q-8.15,10.14-16.73,19.92-4.38,5-8.87,9.85l-2.12,2.29c-.42.45-1.51,2-2.24,1.85-1.73-.46.49-3.42.95-4a7,7,0,0,0,1.52-4.49,10.07,10.07,0,0,1,.14-2.57,7.61,7.61,0,0,1,1.91-2.78q4.15-4.92,8.51-9.67T182,80.3a34.63,34.63,0,0,1,4.31-4.09s.47-.21.18-.09-.08-.21,0,0c-.05-.13,0,0,.09.1s.22.22.34.33a3.38,3.38,0,0,0,2.5.88,5.87,5.87,0,0,0,1.92-.55c.44-.2.85-.44,1.28-.67.25-.13.87-.18,1.05-.32,0,0,.22,0,.21,0s-.69-.79-.46-.83c0,0-.21.46-.2.45a7.47,7.47,0,0,1-1,1.26c-.72.83-1.53,1.6-2.23,2.45-1,1.23.74,3,1.77,1.77,1.3-1.58,3.71-3.25,4.07-5.39a1.88,1.88,0,0,0-2-2.21,4.1,4.1,0,0,0-2.16.43A6.71,6.71,0,0,1,189.27,75c-.54.05-.64-.25-1.15-.68a2.48,2.48,0,0,0-2.63-.47c-2,.72-3.54,2.92-5,4.35-1.74,1.75-3.45,3.52-5.15,5.3q-5.28,5.57-10.29,11.36-1.17,1.35-2.31,2.7a13.31,13.31,0,0,0-2.25,3,7.52,7.52,0,0,0-.54,2.78,8.59,8.59,0,0,1-.26,3.24c-.74,1.67-2.28,2.74-2.65,4.64a3.62,3.62,0,0,0,2.14,4.33c2.2.73,3.65-1.18,5-2.6q2.63-2.84,5.21-5.68Q181,94.5,191.76,81.05C192.75,79.81,191,78,190,79.28Z"/></g><g id="Layer_13" data-name="Layer 13"><polygon class="cls-3" points="150.33 64.57 150.33 44.83 161.09 33.81 170.54 49.19 159.72 62.68 150.33 64.57"/><path class="cls-7" d="M151.58,64.57V44.83l-.36.89,10.76-11-2-.25,9.45,15.38.19-1.52-7.11,8.86c-1.13,1.42-2.39,2.8-3.44,4.29,0,0-.26.26-.26.32,0-.25.92-.3.16-.22-.93.11-1.86.38-2.77.56L150,63.36c-1.58.32-.91,2.73.66,2.41l5.42-1.09,3.23-.64a2.43,2.43,0,0,0,1.34-.53,37.2,37.2,0,0,0,2.94-3.67l4.84-6,3-3.73a1.29,1.29,0,0,0,.19-1.51l-9.45-15.38a1.26,1.26,0,0,0-2-.26c-3.49,3.58-7.05,7.1-10.48,10.74-1,1.09-.65,2.9-.65,4.3V64.57A1.25,1.25,0,0,0,151.58,64.57Z"/></g><g id="Layer_10" data-name="Layer 10"><text class="cls-12" transform="translate(31.88 212.3) rotate(45)">P<tspan class="cls-13" x="9.07" y="0">A</tspan><tspan class="cls-14" x="19.79" y="0">T</tspan><tspan class="cls-15" x="28.05" y="0">CH</tspan></text><text class="cls-16" transform="translate(83.96 249.72)">N<tspan class="cls-14" x="13.19" y="0">O</tspan><tspan x="25.13" y="0">T</tspan></text><text class="cls-16" transform="translate(133.37 246.29) rotate(-45)">FOUND</text></g></g></g></svg>